<svg width="100" height="100" viewBox="0 0 100 100" xmlns="http://www.w3.org/2000/svg">
  <path fill="#075e54" d="M0 0h100v100H0z"/>
  <path fill="#fff" fill-opacity=".1" d="M54.167 0l-8.334 8.334L37.5 0h-4.167l-8.333 8.334L16.667 0h-4.167l-8.333 8.334L0 4.167v4.166l4.167 4.167L0 16.667v4.166l4.167 4.167L0 29.167v4.166l4.167 4.167L0 41.667v4.166l4.167 4.167L0 54.167v4.166l4.167 4.167L0 66.667v4.166l4.167 4.167L0 79.167v4.166l4.167 4.167L0 91.667v4.166L8.333 100h4.167l8.333-8.334 8.334 8.334h4.166l8.334-8.334 8.333 8.334h4.167l8.333-8.334 8.334 8.334h4.166l8.334-8.334 8.333 8.334h4.167l8.333-8.334L100 95.833v-4.166l-4.167-4.167L100 83.333v-4.166l-4.167-4.167L100 70.833v-4.166l-4.167-4.167L100 58.333v-4.166l-4.167-4.167L100 45.833v-4.166l-4.167-4.167L100 33.333v-4.166l-4.167-4.167L100 20.833v-4.166l-4.167-4.167L100 8.333V4.167L91.667 0h-4.167l-8.333 8.334L70.833 0h-4.166l-8.334 8.334L50 0h-4.167l-8.333 8.334L29.167 0H25l-8.333 8.334L8.333 0H4.167L0 4.167v4.166l4.167 4.167L0 16.667v4.166l4.167 4.167L0 29.167v4.166l4.167 4.167L0 41.667v4.166l4.167 4.167L0 54.167v4.166l4.167 4.167L0 66.667v4.166l4.167 4.167L0 79.167v4.166l4.167 4.167L0 91.667v4.166L8.333 100h4.167l8.333-8.334 8.334 8.334h4.166l8.334-8.334 8.333 8.334h4.167l8.333-8.334 8.334 8.334h4.166l8.334-8.334 8.333 8.334h4.167l8.333-8.334L100 95.833v-4.166l-4.167-4.167L100 83.333v-4.166l-4.167-4.167L100 70.833v-4.166l-4.167-4.167L100 58.333v-4.166l-4.167-4.167L100 45.833v-4.166l-4.167-4.167L100 33.333v-4.166l-4.167-4.167L100 20.833v-4.166l-4.167-4.167L100 8.333V4.167L91.667 0h-4.167l-8.333 8.334L70.833 0h-4.166l-8.334 8.334L50 0h-4.167z"/>
</svg>
